<svg width="70" height="84" viewBox="0 0 70 84" fill="none" xmlns="http://www.w3.org/2000/svg">
<path d="M66.4105 54.5731C66.714 54.7011 67.0177 54.7651 67.3212 54.7651C67.8067 54.7651 68.2317 54.6371 68.5352 54.3169C68.8387 53.9965 69.0815 53.5482 69.203 52.9717C69.3243 52.3952 69.4457 51.6906 69.4457 50.922V25.429C69.4457 24.6604 69.385 23.8916 69.203 23.123C69.0815 22.3544 68.8387 21.6498 68.5352 20.9452C68.2317 20.2408 67.8067 19.6002 67.3212 19.0236C66.8355 18.4472 66.2285 17.9348 65.5607 17.4864L63.679 16.3335C63.0112 15.8851 62.4042 15.693 61.9185 15.693C61.433 15.693 61.008 15.8211 60.7045 16.1413C60.401 16.4616 60.158 16.91 60.0367 17.4864C59.9153 18.0629 59.7938 18.7674 59.7938 19.536V45.0932C59.7938 45.8618 59.8547 46.6304 60.0367 47.399C60.158 48.1678 60.401 48.8722 60.7045 49.577C61.008 50.2816 61.433 50.922 61.9185 51.4986C62.3435 52.011 62.829 52.4593 63.3755 52.8437L60.3403 51.0502L16.816 71.483L20.5797 73.7248L29.1388 69.7536L38.2443 75.198L31.567 80.3223L35.452 82.6283L69.4457 56.3665L66.4105 54.5731ZM40.9152 72.9562L32.5988 67.9602L60.0973 55.0213L63.1327 56.8149L40.9152 72.9562ZM65.5607 50.1534L63.679 49.0004C63.254 48.7442 63.0112 48.424 62.829 47.9756C62.647 47.5912 62.5863 47.1428 62.5863 46.7586V21.1374C62.5863 20.7532 62.647 20.4328 62.829 20.1766C63.0112 19.9846 63.254 19.9846 63.679 20.2408L65.5607 21.3936C65.9248 21.6498 66.2285 21.9702 66.4105 22.3544C66.5927 22.8028 66.6533 23.1872 66.6533 23.5714V49.1284C66.6533 49.513 66.5927 49.8332 66.4105 50.0894C66.1678 50.4096 65.9248 50.3456 65.5607 50.1534Z" fill="url(#paint0_linear_5402_203)"/>
<path d="M55.6648 47.7194C56.2113 47.7194 56.5755 47.5914 56.9397 47.271C57.2432 46.9508 57.486 46.5024 57.668 45.9258C57.8502 45.3494 57.9108 44.6448 57.9108 43.8762V18.063C57.9108 17.2944 57.8502 16.5256 57.668 15.757C57.486 14.9884 57.3038 14.2838 56.9397 13.5792C56.6362 12.8746 56.2113 12.2341 55.6648 11.6576C55.1187 11.0811 54.5115 10.5047 53.783 10.1204L51.7798 8.9674C51.0513 8.51903 50.3838 8.32689 49.898 8.26281C49.3517 8.26281 48.9268 8.39093 48.6233 8.71119C48.3197 9.03146 48.077 9.47982 47.8948 10.0563C47.7128 10.6328 47.6522 11.3373 47.6522 12.106V37.8553C47.6522 38.6239 47.7128 39.3925 47.8948 40.1611C48.077 40.9298 48.259 41.6984 48.6233 42.339C48.9268 43.0436 49.3517 43.684 49.898 44.3246C50.2622 44.7088 50.6872 45.0932 51.1122 45.4134L50.4445 45.0292L36.5433 53.3561L36.422 44.0684L42.6137 40.3533L46.6202 10.1204V5.95691L37.029 0V4.16343L43.585 8.19877L38.8502 38.0475L28.5305 44.1964L28.5913 44.1324L30.5945 42.7874C31.323 42.275 31.9905 41.6984 32.4763 40.9939C33.0225 40.2893 33.4475 39.5847 33.751 38.8161C34.0547 38.0475 34.2973 37.2147 34.4795 36.3179C34.6615 35.4213 34.7222 34.5885 34.7222 33.6919V4.73992C34.7222 3.90723 34.6615 3.13859 34.4795 2.43402C34.2973 1.79348 34.1153 1.28106 33.751 0.89674C33.4475 0.512422 33.0225 0.384317 32.4763 0.384317C31.9298 0.384317 31.323 0.640529 30.5945 1.15295L28.5913 2.49806C27.8628 3.01049 27.195 3.58695 26.7095 4.29154C26.163 4.99612 25.7382 5.70071 25.4347 6.46934C25.1312 7.23798 24.8883 8.07067 24.7063 8.9674C24.5242 9.86415 24.4635 10.6968 24.4635 11.5936V40.6095C24.4635 41.5062 24.5242 42.2108 24.7063 42.9154C24.8883 43.556 25.0705 44.0684 25.4347 44.4526C25.7382 44.837 26.163 44.965 26.7095 44.965C27.0737 44.965 27.5593 44.837 28.0448 44.5168L16.4506 51.4984L18.393 50.1535C19.1215 49.641 19.7287 49.0646 20.2748 48.36C20.8213 47.6554 21.1855 46.9508 21.5497 46.182C21.8532 45.4134 22.096 44.5808 22.278 43.684C22.3995 42.7874 22.5208 41.9546 22.5208 41.058V12.1701C22.5208 11.3374 22.4602 10.5687 22.278 9.86415C22.1567 9.2236 21.9138 8.71119 21.5497 8.32689C21.2462 7.94255 20.8213 7.81445 20.2748 7.81445C19.7893 7.81445 19.1215 8.07067 18.393 8.58309L16.4506 9.92819C15.7221 10.4406 15.1151 11.0171 14.5687 11.7217C14.0225 12.4263 13.6582 13.1308 13.294 13.8995C12.9905 14.6681 12.7477 15.5008 12.6263 16.3975C12.5049 17.2944 12.3835 18.1269 12.3835 19.0238V47.9756C12.3835 48.8724 12.4442 49.577 12.6263 50.2816C12.7477 50.9221 12.9905 51.4345 13.294 51.8188C13.5975 52.2031 14.0225 52.3312 14.5687 52.3312C14.9331 52.3312 15.2972 52.2031 15.7828 51.9469L3.7636 59.0567C3.8243 58.9927 3.94572 58.9287 4.00642 58.8645L5.82752 57.5835C6.55595 57.0711 7.16298 56.4947 7.7093 55.7899C8.19495 55.0855 8.61987 54.3809 8.98408 53.5482C9.2876 52.7796 9.5304 51.8829 9.71252 51.0502C9.83393 50.1535 9.95533 49.2566 9.95533 48.424V32.8591C9.95533 31.9625 9.89463 31.1937 9.71252 30.5532C9.5304 29.8487 9.3483 29.3362 8.98408 29.016C8.68057 28.6317 8.25563 28.5036 7.7093 28.5036C7.22368 28.5036 6.55595 28.7598 5.82752 29.2722L2.85305 31.3219V22.6108L9.46972 18.063V13.4511L0 19.9844V37.8553L5.88822 33.8199C6.31313 33.4997 6.61665 33.4997 6.79877 33.6919C6.98088 33.9481 7.04158 34.2683 7.04158 34.8447V50.4097C7.04158 50.9221 6.98088 51.3704 6.79877 51.8188C6.61665 52.2672 6.31313 52.6515 5.88822 52.9717L4.06712 54.2527C3.6422 54.573 3.33868 54.573 3.15657 54.3168C2.97447 54.0606 2.91375 53.6763 2.91375 53.2279V41.7625L0 43.748V55.2137C0 56.1103 0.0607032 56.8789 0.242813 57.5195C0.36422 58.2241 0.607032 58.7365 0.910548 59.0567C1.21406 59.4411 1.63899 59.5691 2.18532 59.5691C2.54955 59.5691 3.03517 59.4411 3.5208 59.1207L0 61.2987L3.8243 63.5405L31.323 47.079L31.6872 56.1743L11.655 68.1522L15.4793 70.3942L54.2688 47.143C54.7543 47.5914 55.24 47.7194 55.6648 47.7194ZM15.54 47.0148C15.3579 46.7586 15.2972 46.4382 15.2972 45.9258V16.974C15.2972 16.5256 15.3579 16.0132 15.54 15.5648C15.7221 15.1165 16.0257 14.7322 16.4506 14.4119L18.393 13.0668C18.818 12.8106 19.0608 12.7465 19.243 13.0027C19.425 13.2589 19.4857 13.5792 19.4857 14.0917V43.0436C19.4857 43.4918 19.425 44.0044 19.243 44.4526C19.0608 44.901 18.7573 45.2854 18.393 45.5416L16.4506 46.8868C16.0257 47.207 15.7221 47.271 15.54 47.0148ZM27.6807 39.7128C27.4987 39.4566 27.438 39.1363 27.438 38.6239V9.60794C27.438 9.15956 27.4987 8.64715 27.6807 8.19877C27.8628 7.75039 28.1663 7.3661 28.5913 7.04582L30.5945 5.70071C31.0193 5.44449 31.323 5.38044 31.505 5.63665C31.6872 5.89287 31.7478 6.21313 31.7478 6.72556V35.7415C31.7478 36.1899 31.6872 36.7023 31.505 37.1507C31.323 37.5991 31.0193 37.9835 30.5945 38.2397L28.5913 39.5847C28.1663 39.9049 27.8628 39.969 27.6807 39.7128ZM51.7798 41.8266C51.355 41.5704 51.0513 41.25 50.8693 40.8018C50.6872 40.4173 50.6265 39.969 50.6265 39.5847V13.8354C50.6265 13.387 50.6872 13.0668 50.8693 12.8746C51.0513 12.6825 51.355 12.6825 51.7798 12.9387L53.783 14.0917C54.208 14.3479 54.4508 14.6681 54.633 15.1165C54.815 15.5648 54.8757 15.9492 54.8757 16.3975V42.1467C54.8757 42.5952 54.815 42.8514 54.633 43.1076C54.4508 43.2998 54.1473 43.2998 53.783 43.0436L51.7798 41.8266Z" fill="url(#paint1_linear_5402_203)"/>
<defs>
<linearGradient id="paint0_linear_5402_203" x1="34.7228" y1="0" x2="34.7228" y2="82.6283" gradientUnits="userSpaceOnUse">
<stop stop-color="#FB8627"/>
<stop offset="1" stop-color="#F5BEF6"/>
</linearGradient>
<linearGradient id="paint1_linear_5402_203" x1="34.7228" y1="0" x2="34.7228" y2="82.6283" gradientUnits="userSpaceOnUse">
<stop stop-color="#FB8627"/>
<stop offset="1" stop-color="#F5BEF6"/>
</linearGradient>
</defs>
</svg>
