<svg width="103" height="124" viewBox="0 0 103 124" fill="none" xmlns="http://www.w3.org/2000/svg">
<path d="M97.7183 80.5603C98.1649 80.7493 98.6117 80.8438 99.0583 80.8438C99.7727 80.8438 100.398 80.6548 100.845 80.1821C101.291 79.7092 101.648 79.0473 101.827 78.1964C102.006 77.3452 102.184 76.3051 102.184 75.1705V37.538C102.184 36.4034 102.095 35.2686 101.827 34.134C101.648 32.9994 101.291 31.9593 100.845 30.9192C100.398 29.8793 99.7727 28.9337 99.0583 28.0825C98.3437 27.2316 97.4505 26.4752 96.4678 25.8133L93.6991 24.1113C92.7164 23.4494 91.8233 23.1658 91.1087 23.1658C90.3943 23.1658 89.7689 23.3549 89.3223 23.8276C88.8758 24.3004 88.5182 24.9624 88.3397 25.8133C88.1611 26.6642 87.9824 27.7043 87.9824 28.8389V66.5662C87.9824 67.7008 88.0719 68.8354 88.3397 69.97C88.5182 71.1048 88.8758 72.1447 89.3223 73.1851C89.7689 74.2252 90.3943 75.1705 91.1087 76.0217C91.734 76.7781 92.4484 77.44 93.2525 78.0074L88.7865 75.3598L24.7435 105.523L30.2815 108.832L42.8757 102.97L56.2738 111.007L46.4486 118.571L52.1651 121.975L102.184 83.2077L97.7183 80.5603ZM60.2037 107.697L47.9669 100.322L88.4289 81.222L92.8952 83.8696L60.2037 107.697ZM96.4678 74.0359L93.6991 72.3339C93.0737 71.9557 92.7164 71.483 92.4484 70.8211C92.1806 70.2537 92.0913 69.5918 92.0913 69.0246V31.2029C92.0913 30.6357 92.1806 30.1628 92.4484 29.7846C92.7164 29.5011 93.0737 29.5011 93.6991 29.8793L96.4678 31.5811C97.0037 31.9593 97.4505 32.4322 97.7183 32.9994C97.9863 33.6613 98.0756 34.2287 98.0756 34.7959V72.5229C98.0756 73.0906 97.9863 73.5633 97.7183 73.9415C97.3612 74.4141 97.0037 74.3197 96.4678 74.0359Z" fill="white"/>
<path d="M81.9068 70.4429C82.711 70.4429 83.2468 70.2539 83.7826 69.781C84.2292 69.3083 84.5865 68.6464 84.8543 67.7953C85.1224 66.9444 85.2116 65.9043 85.2116 64.7697V26.6645C85.2116 25.5299 85.1224 24.3949 84.8543 23.2603C84.5865 22.1257 84.3185 21.0856 83.7826 20.0455C83.3361 19.0054 82.711 18.0599 81.9068 17.2089C81.1032 16.3579 80.2098 15.5069 79.1378 14.9396L76.1903 13.2376C75.1184 12.5757 74.1362 12.2921 73.4213 12.1975C72.6175 12.1975 71.9923 12.3866 71.5458 12.8594C71.0989 13.3322 70.7419 13.994 70.4738 14.845C70.206 15.696 70.1168 16.7361 70.1168 17.8708V55.8816C70.1168 57.0162 70.206 58.1508 70.4738 59.2854C70.7419 60.4202 71.0097 61.5548 71.5458 62.5005C71.9923 63.5406 72.6175 64.486 73.4213 65.4316C73.9572 65.9987 74.5825 66.5662 75.2079 67.0389L74.2255 66.4717L53.7709 78.7638L53.5924 65.0534L62.703 59.5691L68.5982 14.9396V8.79353L54.4855 0V6.14601L64.1322 12.1029L57.1652 56.1653L41.9806 65.2424L42.0701 65.1479L45.0176 63.1624C46.0896 62.406 47.0717 61.5548 47.7866 60.5147C48.5902 59.4746 49.2156 58.4345 49.6622 57.2999C50.109 56.1653 50.4661 54.936 50.7341 53.6121C51.0019 52.2886 51.0912 51.0592 51.0912 49.7357V6.99702C51.0912 5.76781 51.0019 4.63316 50.7341 3.59307C50.4661 2.64752 50.1983 1.89108 49.6622 1.32376C49.2156 0.756432 48.5902 0.567325 47.7866 0.567325C46.9825 0.567325 46.0896 0.945542 45.0176 1.70198L42.0701 3.68761C40.9982 4.44406 40.0155 5.29502 39.3011 6.33514C38.497 7.37522 37.8719 8.41533 37.4253 9.54998C36.9787 10.6846 36.6214 11.9138 36.3536 13.2376C36.0856 14.5614 35.9963 15.7906 35.9963 17.1143V59.9473C35.9963 61.2711 36.0856 62.3112 36.3536 63.3514C36.6214 64.297 36.8895 65.0534 37.4253 65.6206C37.8719 66.188 38.497 66.377 39.3011 66.377C39.837 66.377 40.5516 66.188 41.266 65.7153L24.2058 76.0214L27.064 74.0362C28.1359 73.2795 29.0293 72.4286 29.833 71.3885C30.6371 70.3484 31.1729 69.3083 31.7088 68.1735C32.1554 67.0389 32.5127 65.8098 32.7805 64.486C32.9593 63.1624 33.1378 61.933 33.1378 60.6095V17.9653C33.1378 16.7361 33.0485 15.6015 32.7805 14.5614C32.602 13.6158 32.2446 12.8594 31.7088 12.2921C31.2622 11.7247 30.6371 11.5356 29.833 11.5356C29.1186 11.5356 28.1359 11.9138 27.064 12.6703L24.2058 14.6559C23.1339 15.4123 22.2408 16.2633 21.4369 17.3034C20.6331 18.3435 20.0971 19.3836 19.5612 20.5183C19.1146 21.6529 18.7573 22.8821 18.5787 24.2058C18.4 25.5299 18.2214 26.7587 18.2214 28.0828V70.8211C18.2214 72.1449 18.3107 73.1851 18.5787 74.2252C18.7573 75.1708 19.1146 75.9272 19.5612 76.4944C20.0078 77.0618 20.6331 77.2508 21.4369 77.2508C21.9729 77.2508 22.5088 77.0618 23.2232 76.6836L5.53787 87.1789C5.62718 87.0845 5.80584 86.99 5.89516 86.8952L8.57477 85.0042C9.64661 84.2478 10.5398 83.3969 11.3437 82.3566C12.0583 81.3167 12.6835 80.2766 13.2194 79.0473C13.666 77.9127 14.0233 76.5891 14.2913 75.3598C14.4699 74.0362 14.6486 72.7121 14.6486 71.483V48.5063C14.6486 47.1827 14.5592 46.0479 14.2913 45.1023C14.0233 44.0624 13.7554 43.3058 13.2194 42.8331C12.7728 42.2659 12.1476 42.0767 11.3437 42.0767C10.6291 42.0767 9.64661 42.4549 8.57477 43.2113L4.19806 46.2371V33.3778L13.934 26.6645V19.8564L0 29.5008V55.8816L8.66409 49.9246C9.28932 49.4519 9.73593 49.4519 10.0039 49.7357C10.2719 50.1139 10.3612 50.5865 10.3612 51.4374V74.4144C10.3612 75.1708 10.2719 75.8325 10.0039 76.4944C9.73593 77.1563 9.28932 77.7237 8.66409 78.1964L5.98447 80.0874C5.35924 80.5601 4.91263 80.5601 4.64466 80.1819C4.37672 79.8037 4.28737 79.2365 4.28737 78.5746V61.6493L0 64.5804V81.5059C0 82.8295 0.0893204 83.9641 0.357282 84.9097C0.535924 85.9499 0.893204 86.7063 1.33981 87.1789C1.78641 87.7464 2.41165 87.9353 3.21554 87.9353C3.75148 87.9353 4.46603 87.7464 5.18061 87.2734L0 90.4885L5.62718 93.7978L46.0896 69.4975L46.6254 82.924L17.1495 100.606L22.7767 103.915L79.8527 69.592C80.5671 70.2539 81.2817 70.4429 81.9068 70.4429ZM22.866 69.4028C22.5981 69.0246 22.5088 68.5517 22.5088 67.7953V25.0569C22.5088 24.3949 22.5981 23.6385 22.866 22.9766C23.1339 22.3148 23.5807 21.7475 24.2058 21.2747L27.064 19.2891C27.6893 18.9108 28.0467 18.8163 28.3147 19.1945C28.5825 19.5727 28.6718 20.0455 28.6718 20.802V63.5406C28.6718 64.2022 28.5825 64.9589 28.3147 65.6206C28.0467 66.2825 27.6001 66.8499 27.064 67.2281L24.2058 69.2138C23.5807 69.6865 23.1339 69.781 22.866 69.4028ZM40.7301 58.6237C40.4623 58.2455 40.3731 57.7726 40.3731 57.0162V14.1831C40.3731 13.5213 40.4623 12.7648 40.7301 12.1029C40.9982 11.4411 41.4447 10.8738 42.0701 10.401L45.0176 8.41533C45.6427 8.03711 46.0896 7.94255 46.3574 8.32077C46.6254 8.699 46.7147 9.17176 46.7147 9.92821V52.7613C46.7147 53.4232 46.6254 54.1796 46.3574 54.8415C46.0896 55.5034 45.6427 56.0708 45.0176 56.449L42.0701 58.4345C41.4447 58.9072 40.9982 59.0019 40.7301 58.6237ZM76.1903 61.7441C75.5652 61.3659 75.1184 60.8929 74.8506 60.2313C74.5825 59.6636 74.4933 59.0019 74.4933 58.4345V20.4237C74.4933 19.7618 74.5825 19.2891 74.8506 19.0054C75.1184 18.7217 75.5652 18.7217 76.1903 19.0999L79.1378 20.802C79.7632 21.1802 80.1205 21.6529 80.3886 22.3148C80.6564 22.9766 80.7456 23.5441 80.7456 24.2058V62.2165C80.7456 62.8787 80.6564 63.2569 80.3886 63.6351C80.1205 63.9188 79.6739 63.9188 79.1378 63.5406L76.1903 61.7441Z" fill="white"/>
</svg>
